<?xml version="1.0" encoding="UTF-8" standalone="no"?>
<svg
   xmlns:dc="http://purl.org/dc/elements/1.1/"
   xmlns:cc="http://creativecommons.org/ns#"
   xmlns:rdf="http://www.w3.org/1999/02/22-rdf-syntax-ns#"
   xmlns:svg="http://www.w3.org/2000/svg"
   xmlns="http://www.w3.org/2000/svg"
   xmlns:sodipodi="http://sodipodi.sourceforge.net/DTD/sodipodi-0.dtd"
   xmlns:inkscape="http://www.inkscape.org/namespaces/inkscape"
   viewBox="0 0 700 699.99998"
   version="1.1"
   id="svg59"
   sodipodi:docname="dallas-mavericks-logo.svg"
   width="700"
   height="700"
   inkscape:version="0.92.4 (5da689c313, 2019-01-14)"
   inkscape:export-filename="C:\Users\suitedoalex\sites\dallas-mavericks-logo-0.png"
   inkscape:export-xdpi="561.73712"
   inkscape:export-ydpi="561.73712">
  <metadata
     id="metadata63">
    <rdf:RDF>
      <cc:Work
         rdf:about="">
        <dc:format>image/svg+xml</dc:format>
        <dc:type
           rdf:resource="http://purl.org/dc/dcmitype/StillImage" />
        <dc:title></dc:title>
      </cc:Work>
    </rdf:RDF>
  </metadata>
  <sodipodi:namedview
     pagecolor="#ffffff"
     bordercolor="#666666"
     borderopacity="1"
     objecttolerance="10"
     gridtolerance="10"
     guidetolerance="10"
     inkscape:pageopacity="0"
     inkscape:pageshadow="2"
     inkscape:window-width="1600"
     inkscape:window-height="837"
     id="namedview61"
     showgrid="false"
     inkscape:zoom="0.38038992"
     inkscape:cx="-156.12463"
     inkscape:cy="202.87963"
     inkscape:window-x="-8"
     inkscape:window-y="-8"
     inkscape:window-maximized="1"
     inkscape:current-layer="svg59" />
  <defs
     id="defs7">
    <style
       id="style2">.a{fill:none;}.b{clip-path:url(#a);}.c{fill:#fff;}.d{fill:#bbc4ca;}.e{fill:#0064b1;}</style>
    <clipPath
       id="a">
      <rect
         class="a"
         width="155.5"
         height="155.104"
         id="rect4"
         x="0"
         y="0"
         style="fill:none" />
    </clipPath>
  </defs>
  <g
     class="b"
     clip-path="url(#a)"
     id="g57"
     transform="matrix(3.2381514,0,0,3.2381514,98.233729,98.874876)"
     inkscape:export-filename="C:\Users\suitedoalex\sites\dallas-mavericks-logo-4.png"
     inkscape:export-xdpi="76.261208"
     inkscape:export-ydpi="76.261208">
    <path
       class="c"
       d="M -295.608,87.041 C -296.851,85.192 -301,78.162 -301,66.826 a 53.08,53.08 0 0 1 2.12,-14.513 0.549,0.549 0 0 0 0.023,-0.108 l 0.667,-2.616 0.165,0.163 c 0.1,-0.309 0.211,-0.631 0.318,-0.958 0.538,-1.618 1.1,-3.311 1.228,-3.711 0.088,-0.347 0.58,-2.285 0.967,-3.635 0.117,-0.41 0.215,-0.744 0.318,-1.033 l 0.025,-0.191 c 0.126,-1.006 0.285,-1.97 0.473,-2.9 0.066,-0.5 0.153,-0.985 0.222,-1.394 l 0.029,-0.179 0.074,-0.165 c 0.044,-0.112 0.085,-0.2 0.115,-0.269 a 32,32 0 0 1 7.6,-14.7 l 0.025,-0.026 0.025,-0.026 a 19.354,19.354 0 0 1 2.809,-2.218 c 0.59,-0.775 2.515,-3.27 4.28,-5.247 0.6,-0.666 1.176,-1.272 1.718,-1.763 a 16.994,16.994 0 0 1 2.312,-3.743 20.26,20.26 0 0 1 8.955,-6.358 78.034,78.034 0 0 1 10.562,-6.012 43.523,43.523 0 0 1 7.515,-6.021 37.064,37.064 0 0 1 19.761,-6.203 c 0.307,0 0.619,0.006 0.928,0.015 l 2.95,0.086 -3.653,4.909 q 2.915,-0.22 5.892,-0.222 a 78.472,78.472 0 0 1 29.565,5.739 l 0.044,0.018 0.04,0.018 a 17.655,17.655 0 0 1 1.634,0.885 7.377,7.377 0 0 1 1.6,1.253 11.93,11.93 0 0 1 3.448,0.957 l 0.046,0.018 0.038,0.021 a 76.961,76.961 0 0 1 25.125,21 l 0.061,0.076 0.048,0.085 a 6.042,6.042 0 0 1 0.594,1.826 c 0.113,0.072 0.271,0.172 0.449,0.29 a 7.151,7.151 0 0 1 1.161,0.914 l 0.089,0.092 0.075,0.105 a 73.551,73.551 0 0 1 13.06,41.863 73.424,73.424 0 0 1 -11.8,39.973 l -0.029,0.042 -0.027,0.037 a 2.232,2.232 0 0 1 -0.283,0.309 3.864,3.864 0 0 1 -0.373,0.316 9.059,9.059 0 0 1 -0.9,0.6 c -0.029,0.143 -0.071,0.335 -0.126,0.547 a 5.462,5.462 0 0 1 -0.636,1.617 l -0.021,0.033 -0.029,0.042 a 77.562,77.562 0 0 1 -62.85,31.64 c -33.91,0 -62.721,-21.349 -73.03,-51.063"
       transform="translate(301,17)"
       id="path9"
       inkscape:connector-curvature="0"
       style="fill:#ffffff" />
    <path
       d="m -159.415,22.364 a 9.184,9.184 0 0 0 -1.485,-1.064 0.743,0.743 0 0 1 -0.458,-0.5 5.659,5.659 0 0 0 -0.484,-1.759 75.5,75.5 0 0 0 -24.622,-20.577 10.2,10.2 0 0 0 -3.277,-0.858 0.594,0.594 0 0 1 -0.514,-0.267 9.305,9.305 0 0 0 -2.928,-1.982 76.967,76.967 0 0 0 -28.989,-5.625 77.892,77.892 0 0 0 -9.194,0.547 l 3.958,-5.323 c -15.843,-0.473 -27.212,11.9 -27.212,11.9 l 0.006,0.017 a 76.129,76.129 0 0 0 -10.861,6.177 l 0.009,-0.02 a 17.747,17.747 0 0 0 -10.646,9.626 c -2.092,1.75 -6.239,7.256 -6.239,7.256 a 16.825,16.825 0 0 0 -2.8,2.172 c -1.9,1.977 -5.386,6.44 -7.242,14.126 -0.048,0.127 -0.109,0.248 -0.165,0.377 -0.071,0.428 -0.155,0.912 -0.222,1.391 -0.18,0.913 -0.339,1.859 -0.465,2.846 l 0.08,-0.108 c -0.029,0.207 -0.052,0.329 -0.052,0.329 -0.195,0.134 -1.383,4.869 -1.383,4.869 -0.192,0.6 -2.35,7.088 -2.35,7.088 l -0.015,-0.013 a 0.153,0.153 0 0 0 0,0.041 c -5.679,19.842 1.864,31.868 3.149,33.719 10.033,29.189 38.317,50.221 71.644,50.221 a 76.028,76.028 0 0 0 61.606,-31.009 6.285,6.285 0 0 0 0.586,-1.858 0.754,0.754 0 0 1 0.322,-0.6 5.208,5.208 0 0 0 1.465,-1.017 71.833,71.833 0 0 0 11.56,-39.139 72,72 0 0 0 -12.782,-40.989"
       transform="translate(300.594,16.595)"
       id="path11"
       inkscape:connector-curvature="0" />
    <g
       transform="translate(8.168,4.694)"
       id="g55">
      <path
         class="c"
         d="m -247.324,8.938 c 0.2,-0.2 0.377,-0.39 0.531,-0.564 0.256,-0.264 0.355,-0.328 0.385,-0.309 a 0.512,0.512 0 0 0 0.055,-0.052 29.867,29.867 0 0 1 0.92,-6.806 c 6.867,-9.6 18.2,-12.138 18.2,-12.138 1.408,-0.4 0.5,0.218 0.5,0.218 -7.135,7.993 -6.393,14.6 -6.393,14.6 l 6.811,24.844 c 0,0 -5.52,-1.942 -9.772,-10.671 -1.966,17.415 14.459,31.537 14.459,31.537 0.715,0.611 -0.411,-0.052 -0.411,-0.052 -4.113,-2.054 -8.848,-6.383 -10.144,-7.6 0.347,1.341 8.342,41.53 8.365,41.649 0.038,0.187 0.146,0.575 0.23,0.833 l 2.77,-6.882 2.289,20.293 c -10.412,9.689 -21.5,5.852 -22.185,5.6 0.266,0.435 0.476,0.753 0.476,0.753 0,0 9.01,17.685 45.688,15.81 0,0 0.879,-0.006 0.745,0.109 0.015,0.028 -0.033,0.071 -0.2,0.128 a 12,12 0 0 1 -1.77,0.425 C -240.06,132.492 -263.009,94.755 -264,93.07 a 33.753,33.753 0 0 1 -3.628,-6.464 c -0.036,-0.089 -0.088,-0.389 0.117,-0.156 0,0 4.7,4.9 18,6.111 a 1.085,1.085 0 0 0 0.155,-0.024 c -10.282,-11.461 -14.65,-19.763 -15.3,-21.034 0,0 0,0 -0.012,0 -0.012,0 -1.234,-1.86 -2.7,-7.124 0,0 0.037,-0.264 0.163,0 0.5,1.046 3.9,6.063 8.043,7.185 h 0.008 c -3.51,-5.668 -5.7,-14.635 -5.975,-15.946 4.789,6.7 13.265,7.185 13.265,7.185 a 0.387,0.387 0 0 0 -0.044,-0.066 0.2,0.2 0 0 1 0.028,0.048 c -13.948,-13.913 -10.943,-29.061 -5.281,-40 a 64.139,64.139 0 0 1 9.834,-13.847"
         transform="translate(285.875,11.069)"
         id="path13"
         inkscape:connector-curvature="0"
         style="fill:#ffffff" />
      <path
         class="d"
         d="m -191.638,119.137 -9.152,9.63 a 0.1,0.1 0 0 0 0.021,-0.019 l 11.295,-8.668 -5.846,-20.165 2.553,-24.25 -4.461,23.158 z"
         transform="translate(271.923,-7.028)"
         id="path15"
         inkscape:connector-curvature="0"
         style="fill:#bbc4ca" />
      <path
         class="d"
         d="m -187.8,53.148 c -0.8,4.142 -2.1,8.382 -4.36,10.274 0.168,-0.083 0.368,-0.192 0.6,-0.329 a 12.1,12.1 0 0 0 2.488,-1.978 13.541,13.541 0 0 0 3.622,-9.776 25.984,25.984 0 0 0 -1.25,-7.579 74.753,74.753 0 0 1 -1.1,9.388"
         transform="translate(270.123,-0.371)"
         id="path17"
         inkscape:connector-curvature="0"
         style="fill:#bbc4ca" />
      <path
         class="d"
         d="m -187.33,15.31 0.155,-0.045 z m 0.051,-0.374 c 3.188,-4.818 8.428,-5.234 10.65,-5.257 a 18.8,18.8 0 0 0 -5.293,-0.767 17.373,17.373 0 0 0 -6.907,1.385 c -0.151,0.068 -0.27,0.126 -0.358,0.169 a 19.971,19.971 0 0 1 1.908,4.47"
         transform="translate(269.502,6.899)"
         id="path19"
         inkscape:connector-curvature="0"
         style="fill:#bbc4ca" />
      <path
         class="d"
         d="m -205.316,52.688 m 7.955,-27.3 a 0.165,0.165 0 0 1 0.142,0.154 q 0.012,0.669 0.013,1.345 c 0,10.371 -2.755,21.73 -3.809,25.676 a 60.033,60.033 0 0 0 5.045,-24.089 55.356,55.356 0 0 0 -0.734,-9.141 c -0.192,-1.139 -0.385,-2.013 -0.523,-2.593 -1.008,7.808 -3.977,11.35 -3.992,11.367 a 0.159,0.159 0 0 1 -0.135,0.057 0.161,0.161 0 0 1 -0.128,-0.084 48.36,48.36 0 0 0 -15.383,-16.7 c -0.569,-0.379 -1.021,-0.656 -1.322,-0.836 9.294,20.2 12.014,35.776 12.713,40.912 0.021,-0.591 0.034,-1.194 0.034,-1.8 0,-9.224 -2.361,-20.347 -3.543,-25.326 -0.393,-1.661 -0.654,-2.636 -0.654,-2.638 a 0.164,0.164 0 0 1 0.066,-0.176 0.169,0.169 0 0 1 0.189,0.009 c 4.176,3.248 7.109,12.463 7.628,14.172 a 25.822,25.822 0 0 0 2.633,-5.6 c 0.9,-2.4 1.587,-4.591 1.59,-4.595 a 0.159,0.159 0 0 1 0.151,-0.112 h 0.021 m -3.98,2.615 0.138,-0.075 z"
         transform="translate(275.553,6.558)"
         id="path21"
         inkscape:connector-curvature="0"
         style="fill:#bbc4ca" />
      <path
         class="d"
         d="m -290.678,67.385 c 0,9.6 1.656,19.655 9.92,32.477 l 0.013,0.018 c 7.8,16.441 22.193,25.292 28.9,28.687 2.232,1.129 3.6,1.654 3.617,1.66 a 68.99,68.99 0 0 0 29.669,6.87 70.935,70.935 0 0 0 39.026,-12.162 c 1.988,-1.35 3.043,-2.246 3.043,-2.247 l 0.1,0.121 -0.1,-0.122 c 0.4,-0.326 0.693,-0.584 0.91,-0.777 -0.119,0.064 -0.238,0.137 -0.355,0.207 -0.427,0.253 -0.818,0.507 -0.82,0.51 -14.622,8.581 -28.1,11.2 -39.093,11.2 -17.232,0 -28.38,-6.424 -28.39,-6.43 C -280.769,108.24 -281.3,75.035 -281.3,75.012 a 0.156,0.156 0 0 1 0.121,-0.157 0.159,0.159 0 0 1 0.18,0.081 c 4.714,9.131 10.428,12.247 12.972,13.237 0.369,0.142 0.668,0.239 0.889,0.3 C -277.762,75.09 -280.8,63.824 -280.8,55.331 c 0,-11.251 5.327,-17.619 5.34,-17.635 a 0.157,0.157 0 0 1 0.19,-0.042 0.158,0.158 0 0 1 0.09,0.175 56.082,56.082 0 0 0 -1.055,10.495 c 0,7.411 1.741,12.024 2.6,13.86 0.025,0.054 0.051,0.106 0.076,0.154 a 65.852,65.852 0 0 1 -0.467,-7.812 61.807,61.807 0 0 1 17.77,-43.448 c -2.318,0.972 -5.134,3.462 -7.428,5.812 -2.539,2.6 -4.456,5.009 -4.461,5.013 a 0.159,0.159 0 0 1 -0.176,0.052 0.158,0.158 0 0 1 -0.1,-0.153 14.947,14.947 0 0 1 1.77,-5.7 22.438,22.438 0 0 0 -4.569,6.758 40.534,40.534 0 0 0 -1.917,4.788 l -0.034,0.058 A 50.2,50.2 0 0 0 -282.84,44.4 c -0.349,1.033 -0.5,1.621 -0.5,1.621 a 5.237,5.237 0 0 1 -0.28,0.93 c -0.034,0.038 -0.034,0.11 -0.184,0.132 a 0.179,0.179 0 0 1 -0.168,-0.12 0.3,0.3 0 0 1 -0.025,-0.1 1.719,1.719 0 0 1 -0.013,-0.225 c 0,-0.305 0.037,-0.726 0.037,-0.726 0.112,-4.728 2.076,-10.043 2.867,-12.008 -5.57,5.991 -6.935,14.113 -6.935,20.6 a 49.839,49.839 0 0 0 0.612,7.7 c 0.3,1.932 0.606,3.089 0.606,3.093 v 0.04 a 70.145,70.145 0 0 0 1.511,12.3 c 0.749,3.76 1.486,6.556 1.486,6.551 a 5.982,5.982 0 0 1 0.347,1.247 0.433,0.433 0 0 1 -0.021,0.109 0.188,0.188 0 0 1 -0.167,0.11 0.251,0.251 0 0 1 -0.18,-0.1 1.159,1.159 0 0 1 -0.1,-0.138 c -0.071,-0.1 -0.15,-0.242 -0.226,-0.377 -0.147,-0.26 -0.281,-0.519 -0.281,-0.522 -3.889,-5.959 -5.787,-15.787 -6.222,-18.267 0,0.374 -0.006,0.749 -0.006,1.125"
         transform="translate(290.678,6.448)"
         id="path23"
         inkscape:connector-curvature="0"
         style="fill:#bbc4ca" />
      <path
         class="e"
         d="m -186.336,17.876 -0.079,-0.073 0.037,-0.1 c 1.787,-4.773 10.179,-9.016 11.809,-9.812 a 21.769,21.769 0 0 0 -10.758,-2.85 21.96,21.96 0 0 0 -5.727,0.76 14.6,14.6 0 0 0 -2.189,0.753 v 0 l -0.115,0.053 -0.075,-0.1 a 42.483,42.483 0 0 0 -4.846,-4.941 c -1.456,-1.286 -2.573,-2.153 -2.67,-2.225 -0.213,-0.139 -0.347,-0.219 -0.364,-0.42 a 0.269,0.269 0 0 1 0.147,-0.229 0.721,0.721 0 0 1 0.217,-0.072 2.847,2.847 0 0 1 0.5,-0.036 c 0.2,0 0.373,0.012 0.415,0.013 33.469,0.009 51.262,23.922 51.266,23.929 a 1.214,1.214 0 0 1 0.347,0.778 c -0.029,0.722 -0.846,1.065 -1.584,1.3 a 9.46,9.46 0 0 1 -1.5,0.311 65.32,65.32 0 0 1 -9,0.645 c -17.4,0 -25.815,-7.663 -25.836,-7.681"
         transform="translate(272.032,9.055)"
         id="path25"
         inkscape:connector-curvature="0"
         style="fill:#0064b1" />
      <path
         class="e"
         d="m -196.832,129.693 a 0.165,0.165 0 0 1 -0.109,-0.123 0.163,0.163 0 0 1 0.056,-0.155 l 11.23,-9.035 -5.7,-21.1 v -0.059 l 1.573,-14.149 a 0.149,0.149 0 0 1 0.071,-0.117 0.153,0.153 0 0 1 0.132,-0.02 c 2.554,0.785 3.751,4.259 4.371,7.5 a 39.2,39.2 0 0 1 0.6,5.633 c 2.982,-6.452 3.955,-11.634 3.955,-15.653 0,-5.693 -1.952,-9.051 -2.915,-10.37 a 5.619,5.619 0 0 0 -0.529,-0.645 0.163,0.163 0 0 1 0,-0.225 0.16,0.16 0 0 1 0.224,0 c 13.375,12.669 16.061,30.4 16.061,42.628 a 74.445,74.445 0 0 1 -1.226,14.02 v 0.018 a 2.7,2.7 0 0 1 -1.812,1.64 65.583,65.583 0 0 1 -14.186,1.6 42.764,42.764 0 0 1 -11.788,-1.39"
         transform="translate(271.12,-6.082)"
         id="path27"
         inkscape:connector-curvature="0"
         style="fill:#0064b1" />
      <path
         class="e"
         d="m -161.354,124.253 a 1,1 0 0 1 -0.336,-0.835 2.671,2.671 0 0 1 0.08,-0.621 c 0,0 0.436,-1.678 0.871,-4.563 a 80.615,80.615 0 0 0 0.865,-11.777 c 0,-12.737 -3.055,-30.5 -17.245,-44.316 a 2.268,2.268 0 0 1 -0.385,-0.318 0.356,0.356 0 0 1 -0.1,-0.228 0.218,0.218 0 0 1 0.119,-0.192 0.38,0.38 0 0 1 0.186,-0.038 2.655,2.655 0 0 1 0.641,0.116 15.826,15.826 0 0 1 6.43,4.122 c -0.023,-0.185 -0.054,-0.419 -0.091,-0.695 a 25.238,25.238 0 0 0 -0.681,-3.057 22.194,22.194 0 0 0 -4.424,-8.414 7.831,7.831 0 0 1 -0.518,-0.593 0.533,0.533 0 0 1 -0.121,-0.263 0.186,0.186 0 0 1 0.05,-0.127 0.187,0.187 0 0 1 0.129,-0.052 0.571,0.571 0 0 1 0.282,0.115 c 0.106,0.068 0.25,0.169 0.445,0.315 0.85,0.411 36.492,17.657 37.742,52.485 0,0 0.018,0.2 0.018,0.515 a 4.726,4.726 0 0 1 -1.261,3.514 c -0.346,0.43 -8.79,10.935 -21.219,14.969 a 2.5,2.5 0 0 1 -0.791,0.146 1.08,1.08 0 0 1 -0.69,-0.209"
         transform="translate(267.086,-2.175)"
         id="path29"
         inkscape:connector-curvature="0"
         style="fill:#0064b1" />
      <path
         class="e"
         d="m -136.263,95.91 a 3.367,3.367 0 0 1 -0.161,-1.06 c -0.81,-33.51 -37.549,-54.607 -46.732,-59.344 -1.31,-0.677 -2.05,-1.02 -2.05,-1.02 l -0.647,-0.3 0.709,-0.008 h 0.088 a 11.615,11.615 0 0 1 8.642,3.914 v 0 a 10.957,10.957 0 0 0 -0.347,-2.512 c -0.18,-0.707 -0.354,-1.185 -0.354,-1.185 l -0.12,-0.328 0.324,0.124 c 3.846,1.465 8.8,1.951 13.661,1.95 a 100,100 0 0 0 12.738,-0.907 c 3.434,-0.454 5.683,-0.907 5.687,-0.907 h 0.008 0.009 c 0.18,-0.016 0.351,-0.023 0.51,-0.023 a 2.713,2.713 0 0 1 2.661,1.285 c 4.591,5.121 10.282,16.993 11.232,31.25 0.117,1.79 0.172,3.528 0.172,5.2 -0.008,12.508 -3,21.625 -4.76,23.787 a 1.121,1.121 0 0 1 -0.764,0.51 0.571,0.571 0 0 1 -0.506,-0.43"
         transform="translate(268.806,1.651)"
         id="path31"
         inkscape:connector-curvature="0"
         style="fill:#0064b1" />
      <path
         d="m -224.611,-6.5 a 0.34,0.34 0 0 0 0.063,-0.089 h -0.01 c -0.408,0.116 -7.727,2.275 -9.894,13.437 0,0 -0.017,0.2 0.1,0.016 0.659,-1.086 2.944,-4.548 5.049,-3.521 0,0 0.013,-0.085 0.029,-0.229 0.113,-0.945 0.8,-4.824 4.662,-9.619"
         transform="translate(278.947,10.133)"
         id="path33"
         inkscape:connector-curvature="0" />
      <path
         d="m -234.07,113.91 c -1.582,-3.178 -11.74,-25.373 -11.74,-25.373 -3.164,1.01 -7.083,-1.566 -7.083,-1.566 v 0.012 c 5,13.276 16.766,24.887 18.642,26.992 a 0.106,0.106 0 0 1 0.03,0.029 c 0.318,0.349 0.318,0.221 0.318,0.221 -0.046,-0.065 -0.093,-0.175 -0.168,-0.315"
         transform="translate(282.794,-9.387)"
         id="path35"
         inkscape:connector-curvature="0" />
      <path
         d="m -242.454,29.614 c -9.173,20.962 11.466,29.6 11.738,29.711 h 0.009 l -1.093,-4.825 -0.624,-2.765 a 14.643,14.643 0 0 1 -1.469,-0.567 c -0.159,-0.068 -0.313,-0.146 -0.468,-0.216 -0.191,-0.093 -0.385,-0.184 -0.565,-0.279 -9.018,-4.8 -8.143,-16.276 -7.587,-20 a 0.5,0.5 0 0 1 0,-0.078 c 0.021,-0.108 0.038,-0.214 0.055,-0.313 0.055,-0.35 0.1,-0.587 0.13,-0.714 0.009,-0.057 0.017,-0.094 0.017,-0.094 v -0.015 c 0.025,-0.279 -0.1,0.04 -0.146,0.158"
         transform="translate(281.106,2.636)"
         id="path37"
         inkscape:connector-curvature="0" />
      <path
         class="d"
         d="m -225.067,97.306 -1.485,-26.34 8.857,29.369 c 0,0 -2.907,-6.94 -7.371,-3.029"
         transform="translate(277.298,-6.048)"
         id="path39"
         inkscape:connector-curvature="0"
         style="fill:#bbc4ca" />
      <path
         class="d"
         d="m -224.786,8.448 1.963,15.75 c 0,0 0.958,4.3 -4.94,-2.15 4.251,8.729 9.771,10.671 9.771,10.671 L -224.75,8.066 a 0.652,0.652 0 0 0 -0.036,0.382"
         transform="translate(277.551,7.076)"
         id="path41"
         inkscape:connector-curvature="0"
         style="fill:#bbc4ca" />
      <path
         class="d"
         d="m -236.371,40.641 a 9.025,9.025 0 0 1 -0.774,-3.54 7.989,7.989 0 0 1 2.831,-5.994 l 0.084,-0.063 a 60.386,60.386 0 0 1 0.088,-6.378 c -2.264,3.334 -7.064,11.234 -1.319,17.414 -0.092,-0.129 -0.176,-0.245 -0.253,-0.358 a 9.733,9.733 0 0 1 -0.657,-1.081"
         transform="translate(279.724,3.613)"
         id="path43"
         inkscape:connector-curvature="0"
         style="fill:#bbc4ca" />
      <path
         d="m -230.1,45.529 a 34.118,34.118 0 0 1 -3.85,-12.689 0.663,0.663 0 0 1 -0.008,-0.113 l -0.085,0.063 a 7.988,7.988 0 0 0 -2.83,5.993 9.025,9.025 0 0 0 0.774,3.54 9.733,9.733 0 0 0 0.657,1.081 c 0.078,0.112 0.161,0.229 0.253,0.358 0.092,0.129 0.23,0.264 0.364,0.408 a 7.279,7.279 0 0 0 5.281,2.26 c 0,0 -0.222,-0.315 -0.552,-0.9"
         transform="translate(279.451,1.931)"
         id="path45"
         inkscape:connector-curvature="0" />
      <path
         class="d"
         d="m -212.582,127.852 v 0 0.013 c 0,-0.011 0,-0.022 0,-0.034 v -0.008 z"
         transform="translate(274.383,-17.911)"
         id="path47"
         inkscape:connector-curvature="0"
         style="fill:#bbc4ca" />
      <path
         class="d"
         d="m -219.2,111.349 c 0.916,0.01 1.613,0.847 2.184,2.008 a 20.614,20.614 0 0 1 1.39,4.256 c 0.444,1.919 0.728,3.837 0.883,5.008 0,0.529 -0.009,0.916 -0.023,1.141 v 0.019 c 0.194,-1.27 2.057,-13.58 -4.2,-15.313 0,0 -4.352,-1.113 -4.071,7.957 0.027,-0.207 0.05,-0.388 0.066,-0.556 1.429,-3.21 2.624,-4.494 3.771,-4.519"
         transform="translate(276.567,-13.864)"
         id="path49"
         inkscape:connector-curvature="0"
         style="fill:#bbc4ca" />
      <path
         d="M -212.579,127.829 Z"
         transform="translate(274.383,-17.913)"
         id="path51"
         inkscape:connector-curvature="0" />
      <path
         d="m -214.737,123.391 c -0.025,-0.384 -0.439,-3.089 -0.883,-5.008 a 20.622,20.622 0 0 0 -1.39,-4.255 c -0.571,-1.162 -1.268,-2 -2.184,-2.008 -1.147,0.025 -2.342,1.308 -3.771,4.519 a 1.12,1.12 0 0 0 -0.066,0.556 l 2.155,4.748 c 0,0 1.238,-12.713 6.105,2.57 0,0.029 0,0.053 0.009,0.063 v -0.03 0.009 -0.022 a 5.909,5.909 0 0 0 0.023,-1.141"
         transform="translate(276.564,-14.635)"
         id="path53"
         inkscape:connector-curvature="0" />
    </g>
  </g>
</svg>
