<?xml version="1.0" encoding="UTF-8" standalone="no"?>
<!-- Created with Inkscape (http://www.inkscape.org/) -->

<svg
   xmlns:dc="http://purl.org/dc/elements/1.1/"
   xmlns:cc="http://creativecommons.org/ns#"
   xmlns:rdf="http://www.w3.org/1999/02/22-rdf-syntax-ns#"
   xmlns:svg="http://www.w3.org/2000/svg"
   xmlns="http://www.w3.org/2000/svg"
   xmlns:sodipodi="http://sodipodi.sourceforge.net/DTD/sodipodi-0.dtd"
   xmlns:inkscape="http://www.inkscape.org/namespaces/inkscape"
   width="700"
   height="700"
   viewBox="0 0 185.20834 185.20834"
   version="1.1"
   id="svg9039"
   inkscape:export-filename="C:\Users\alex\sites\milwaukee-bucks-logo-0.png"
   inkscape:export-xdpi="561.73999"
   inkscape:export-ydpi="561.73999"
   inkscape:version="0.92.3 (2405546, 2018-03-11)"
   sodipodi:docname="milwaukee-bucks-logo.svg">
  <defs
     id="defs9033">
    <clipPath
       clipPathUnits="userSpaceOnUse"
       id="clipPath34">
      <path
         d="M 587.75,18 H 735.402 V 182.88 H 587.75 Z"
         id="path32"
         inkscape:connector-curvature="0" />
    </clipPath>
    <clipPath
       clipPathUnits="userSpaceOnUse"
       id="clipPath22">
      <path
         d="M 595.021,18 H 728.133 V 182.88 H 595.021 Z"
         id="path20"
         inkscape:connector-curvature="0" />
    </clipPath>
  </defs>
  <sodipodi:namedview
     id="base"
     pagecolor="#ffffff"
     bordercolor="#666666"
     borderopacity="1.0"
     inkscape:pageopacity="0.0"
     inkscape:pageshadow="2"
     inkscape:zoom="0.7"
     inkscape:cx="369.77185"
     inkscape:cy="299.75527"
     inkscape:document-units="mm"
     inkscape:current-layer="layer1"
     showgrid="false"
     units="px"
     inkscape:window-width="1600"
     inkscape:window-height="838"
     inkscape:window-x="-8"
     inkscape:window-y="-8"
     inkscape:window-maximized="1" />
  <metadata
     id="metadata9036">
    <rdf:RDF>
      <cc:Work
         rdf:about="">
        <dc:format>image/svg+xml</dc:format>
        <dc:type
           rdf:resource="http://purl.org/dc/dcmitype/StillImage" />
        <dc:title></dc:title>
      </cc:Work>
    </rdf:RDF>
  </metadata>
  <g
     inkscape:label="Camada 1"
     inkscape:groupmode="layer"
     id="layer1"
     transform="translate(0,-111.79161)">
    <g
       transform="matrix(0.81897824,0,0,-0.81897824,-449.2128,286.65395)"
       id="g16"
       inkscape:export-xdpi="93.197823"
       inkscape:export-ydpi="93.197823">
      <g
         id="g18"
         clip-path="url(#clipPath22)">
        <g
           id="g24"
           transform="translate(661.5765,18)">
          <path
             d="m 0,0 c -36.7,0 -66.556,29.856 -66.556,66.556 0,17.939 7.061,34.773 19.883,47.4 0.102,0.1 0.213,0.188 0.33,0.264 -4.423,6.662 -6.898,14.455 -5.016,23.895 3.464,17.386 17.515,22.627 18.112,22.842 0.229,0.082 0.464,0.121 0.695,0.121 0.74,0 1.446,-0.402 1.813,-1.086 0.23,-0.431 0.292,-0.912 0.204,-1.362 4.599,3.866 8.975,5.561 10.818,6.152 0.208,0.067 0.419,0.098 0.627,0.098 0.787,0 1.529,-0.454 1.87,-1.203 0.432,-0.949 0.085,-2.071 -0.807,-2.609 -4.188,-2.532 -7.839,-5.965 -10.601,-9.92 3.311,0.766 5.537,0.846 6.317,0.846 0.275,0 0.416,-0.009 0.416,-0.009 1.013,-0.062 1.836,-0.858 1.925,-1.869 0.09,-1.012 -0.567,-1.938 -1.553,-2.178 -0.053,-0.013 -5.551,-1.405 -11.623,-5.76 -1.144,-3.498 -1.725,-7.144 -1.725,-10.852 0,-7.039 2.253,-14.263 6.181,-19.823 0.907,-1.282 1.802,-2.408 2.739,-3.433 -0.346,7.256 1.788,18.476 14.812,23.701 0.249,0.101 0.509,0.148 0.763,0.148 0.757,0 1.48,-0.42 1.837,-1.134 0.481,-0.956 0.146,-2.118 -0.766,-2.675 l -0.097,-0.058 c -1.971,-1.283 -3.635,-2.932 -4.916,-4.843 1.367,0.41 2.547,0.55 3.347,0.645 l 0.155,0.018 c 0.083,0.01 0.165,0.015 0.247,0.015 0.859,0 1.64,-0.54 1.934,-1.367 0.322,-0.905 -0.027,-1.912 -0.84,-2.425 0,0 -0.122,-0.078 -0.152,-0.095 -4.171,-2.405 -6.491,-5.204 -6.895,-8.318 -0.439,-3.374 1.409,-6.56 2.757,-8.379 3.492,4.069 5.765,10.968 6.403,13.576 0.226,0.929 1.058,1.568 1.994,1.568 0.079,0 0.159,-0.005 0.24,-0.015 1.031,-0.121 1.81,-0.99 1.815,-2.027 0.052,-8.524 -2.228,-14.357 -4.575,-18.095 3.497,-1.756 6.911,-1.857 7.653,-1.857 0.084,0 0.203,0.003 0.23,0.003 0.028,0 0.057,-0.002 0.088,-0.002 0,0 0.067,-10e-4 0.152,-10e-4 0.741,0 4.156,0.101 7.653,1.857 -2.348,3.738 -4.628,9.571 -4.576,18.095 0.006,1.037 0.785,1.906 1.815,2.027 0.081,0.01 0.161,0.015 0.241,0.015 0.935,0 1.767,-0.639 1.994,-1.568 0.638,-2.608 2.91,-9.508 6.402,-13.576 1.348,1.818 3.197,5.004 2.758,8.379 -0.405,3.114 -2.725,5.913 -6.896,8.318 -0.029,0.017 -0.124,0.077 -0.124,0.077 -0.812,0.514 -1.174,1.529 -0.853,2.434 0.295,0.828 1.066,1.376 1.924,1.376 0.081,0 0.161,-0.005 0.243,-0.015 l 0.155,-0.018 c 0.8,-0.095 1.979,-0.235 3.346,-0.645 -1.281,1.911 -2.944,3.56 -4.915,4.843 l -0.097,0.058 c -0.913,0.557 -1.246,1.719 -0.767,2.675 0.358,0.714 1.08,1.134 1.837,1.134 0.255,0 0.514,-0.047 0.764,-0.148 13.023,-5.225 15.158,-16.445 14.812,-23.701 0.938,1.024 1.832,2.151 2.739,3.433 3.928,5.56 6.181,12.784 6.181,19.823 0,3.708 -0.581,7.354 -1.726,10.852 -6.111,4.386 -11.566,5.746 -11.622,5.76 -0.987,0.24 -1.644,1.166 -1.554,2.178 0.09,1.011 0.912,1.807 1.927,1.869 0,0 0.14,0.009 0.414,0.009 0.781,0 3.007,-0.08 6.318,-0.846 -2.763,3.955 -6.414,7.388 -10.602,9.92 -0.892,0.538 -1.239,1.66 -0.806,2.609 0.34,0.749 1.083,1.203 1.869,1.203 0.208,0 0.419,-0.031 0.628,-0.098 1.844,-0.591 6.219,-2.286 10.818,-6.152 -0.088,0.45 -0.026,0.931 0.204,1.362 0.366,0.684 1.073,1.086 1.813,1.086 0.23,0 0.466,-0.039 0.695,-0.121 0.596,-0.215 14.648,-5.456 18.112,-22.842 1.881,-9.44 -0.593,-17.233 -5.017,-23.895 0.118,-0.076 0.228,-0.164 0.33,-0.264 C 59.495,101.329 66.556,84.495 66.556,66.556 66.556,29.856 36.699,0 0,0"
             style="fill:#dbc795;fill-opacity:1;fill-rule:nonzero;stroke:none"
             id="path26"
             inkscape:connector-curvature="0" />
        </g>
      </g>
    </g>
    <g
       transform="matrix(0.81897824,0,0,-0.81897824,-449.2128,286.65395)"
       id="g28"
       inkscape:export-xdpi="93.197823"
       inkscape:export-ydpi="93.197823">
      <g
         id="g30"
         clip-path="url(#clipPath34)">
        <g
           id="g36"
           transform="translate(621.7172,135.1415)">
          <path
             d="M 0,0 C 0,0 -2.937,13.309 -0.754,21.184 -1.336,20.557 -1.926,19.91 -2.472,19.204 -7.792,12.319 0,0 0,0 m 79.718,0 c 0,0 7.792,12.319 2.472,19.204 -0.546,0.706 -1.136,1.353 -1.718,1.98 C 82.655,13.309 79.718,0 79.718,0 M -9.486,20.571 C -6.208,37.019 7.308,41.882 7.308,41.882 2.36,38.226 -2.692,31.352 -4.779,21.7 c 2.032,2.521 3.916,4.413 6.13,5.922 C 6.83,39.426 16.181,44.213 20.77,45.684 14.818,42.087 9.841,36.733 6.816,30.565 c 6.881,2.457 11.034,2.228 11.034,2.228 0,0 -6.151,-1.496 -12.874,-6.481 -1.32,-3.799 -2.042,-7.878 -2.042,-12.127 0,-7.473 2.407,-15.135 6.557,-21.008 2.335,-3.304 4.59,-5.59 7.397,-7.67 -0.928,2.335 -4.461,20.372 12.596,27.216 L 29.364,12.65 C 25.335,10.04 22.366,5.974 21.16,1.191 c 3.115,2.982 6.401,3.293 8.127,3.5 -0.025,-0.016 -0.053,-0.035 -0.081,-0.053 -15.835,-9.131 -3.244,-21.502 -3.244,-21.502 4.993,4.184 7.904,13.553 8.531,16.115 0.059,-9.9 -3.232,-15.827 -5.47,-18.724 5.105,-3.502 10.829,-3.267 10.831,-3.267 h 0.005 0.005 c 0.002,0 5.726,-0.235 10.831,3.267 -2.238,2.897 -5.53,8.824 -5.469,18.724 0.626,-2.562 3.537,-11.931 8.53,-16.115 0,0 12.591,12.371 -3.244,21.502 -0.028,0.018 -0.055,0.037 -0.082,0.053 1.727,-0.207 5.014,-0.518 8.128,-3.5 -1.206,4.783 -4.175,8.849 -8.204,11.459 l -0.12,0.073 c 17.057,-6.844 13.524,-24.881 12.595,-27.216 2.807,2.08 5.063,4.366 7.398,7.67 4.149,5.873 6.556,13.535 6.556,21.008 0,4.249 -0.72,8.328 -2.041,12.127 -6.723,4.985 -12.874,6.481 -12.874,6.481 0,0 4.152,0.229 11.035,-2.228 -3.026,6.168 -8.003,11.522 -13.955,15.119 4.589,-1.471 13.94,-6.258 19.419,-18.062 2.214,-1.509 4.098,-3.401 6.13,-5.922 -2.087,9.652 -7.138,16.526 -12.086,20.182 0,0 13.515,-4.863 16.792,-21.311 C 93.017,1.428 77.729,-10.527 65.4,-20.767 l 9.412,3.838 c 0.638,0.271 1.079,-0.343 0.963,-1.078 l -0.276,-2.324 c -0.152,-1.278 -1.091,-7.756 -4.647,-9.72 -0.77,-0.425 -2.095,-0.909 -5.998,-1.199 l -7.065,-0.454 1.173,-3.973 -6.936,-11.109 3.553,3.743 7.25,-25.791 -19.896,-16.37 6.209,28.162 -9.283,-11.292 -9.283,11.292 6.209,-28.162 -19.897,16.37 7.252,25.791 3.552,-3.743 -6.936,11.109 1.174,3.973 -7.066,0.454 c -3.903,0.29 -5.228,0.774 -5.997,1.199 -3.556,1.964 -4.495,8.442 -4.648,9.72 l -0.276,2.324 c -0.116,0.735 0.325,1.349 0.963,1.078 l 9.412,-3.838 C 1.989,-10.527 -13.299,1.428 -9.486,20.571 m 8.793,-30.024 c -10.448,-10.45 -17.16,-25.224 -17.16,-41.132 0,-3.676 0.349,-7.271 1.01,-10.758 l 17.403,4.699 c 2.875,-18.973 19.295,-33.56 39.057,-33.56 19.838,0 36.304,14.698 39.088,33.774 l 17.856,-4.911 c 0.661,3.485 1.01,7.08 1.01,10.756 0,15.908 -6.606,30.483 -17.053,40.933 l 1.528,1.651 c 11.019,-10.88 17.789,-25.912 17.789,-42.584 0,-33.071 -26.905,-59.976 -59.976,-59.976 -33.07,0 -59.975,26.905 -59.975,59.976 0,16.672 6.84,31.774 17.859,42.655 z m 85.783,4.804 -1.436,-1.723 c 11.387,-11.279 18.444,-26.92 18.444,-44.213 0,-34.374 -27.866,-62.239 -62.239,-62.239 -34.373,0 -62.238,27.865 -62.238,62.239 0,17.293 7.056,32.936 18.442,44.214 l -1.435,1.722 c -11.887,-11.707 -19.27,-27.974 -19.27,-45.936 0,-35.566 28.935,-64.502 64.501,-64.502 35.567,0 64.502,28.936 64.502,64.502 0,17.962 -7.383,34.229 -19.271,45.936"
             style="fill:#2a4c31;fill-opacity:1;fill-rule:nonzero;stroke:none"
             id="path38"
             inkscape:connector-curvature="0" />
        </g>
        <g
           id="g40"
           transform="translate(656.955,42.016)">
          <path
             d="m 0,0 -3.623,-5.028 1.621,-8.827 -2.24,0.394 -1.219,6.411 -1.056,-6.011 -2.141,0.376 2.421,13.78 2.14,-0.376 -0.671,-3.824 2.511,3.501 z m 28.905,-6.215 -1.854,3.444 2.404,1.285 1.852,-3.445 z m -4.484,8.33 2.403,1.293 1.587,-2.953 -2.401,-1.292 z m 5.818,-2.299 0.232,1.37 -2.122,3.922 -2.013,0.568 -4.826,-2.604 6.619,-12.231 4.828,2.604 0.602,2.036 -2.056,3.798 z M 8.328,-11.84 8.364,-14.06 1.642,-14.172 1.412,-0.253 8.134,-0.141 8.171,-2.362 3.604,-2.438 3.659,-5.795 8.226,-5.72 8.263,-7.923 3.697,-7.999 3.761,-11.915 Z m 10.22,1.612 0.427,-2.18 -6.597,-1.296 -2.683,13.661 6.598,1.295 0.428,-2.179 -4.482,-0.88 0.647,-3.295 4.482,0.88 0.425,-2.162 -4.482,-0.88 0.755,-3.844 z M 34.445,11.894 43.412,1.246 42.256,0.272 39.205,-2.299 37.958,-3.348 29.055,7.354 l 1.662,1.401 7.538,-8.95 2.077,1.75 -7.536,8.95 z m 25.241,17.157 -2.018,-6.733 -1.491,0.447 -2.245,0.673 0.619,2.065 1.608,-0.482 0.779,2.602 -3.718,1.115 -1.432,-4.658 -1.495,0.447 -5.961,1.787 0.444,1.48 1.575,5.253 1.512,-0.452 2.206,-0.662 -0.619,-2.066 -1.591,0.477 -0.78,-2.602 3.216,-0.964 1.417,4.663 1.49,-0.447 4.993,-1.496 z m -12.33,-8.612 8.896,-1.178 -1.066,-2.012 -6.473,0.818 5.393,-2.858 -1.019,-1.92 -12.361,6.551 1.017,1.921 3.431,-1.819 -2.556,3.469 1.074,2.026 z m 2.294,-9.572 1.216,-0.97 -3.42,-4.287 -0.964,-1.208 -9.637,7.691 -1.245,0.991 4.385,5.494 1.243,-0.991 2.079,-1.658 -1.345,-1.686 -1.572,1.254 -1.695,-2.124 7.396,-5.901 1.694,2.124 -1.585,1.265 1.345,1.686 z m -57.378,-9.412 -4.999,-12.992 -1.41,0.542 -3.724,1.432 -1.522,0.586 5.078,12.962 2.029,-0.781 -4.201,-10.919 2.535,-0.975 4.201,10.92 z m -32.559,10.247 2.669,-3.727 -1.819,-1.304 -3.936,5.495 11.376,8.145 1.265,-1.767 z m 5.371,14.229 -13.232,-4.546 -0.706,2.056 8.303,2.851 -3.833,0.121 2.95,2.449 -8.303,-2.853 -0.706,2.056 13.232,4.546 0.706,-2.055 -2.949,-2.45 3.832,-0.119 z m 1.955,-3.743 -12.409,-6.464 -1.003,1.927 12.407,6.464 z m 10.538,-12.975 -10.7,-9.097 -1.475,1.456 2.58,3.893 -3.848,-2.641 -1.474,1.456 8.961,10.814 1.437,-1.419 -3.619,-4.561 4.912,3.284 0.496,-0.489 -3.221,-4.954 4.502,3.69 z m 2.11,-8.153 -2.29,1.463 1.835,2.873 2.3,-1.448 z m 4.425,2.922 0.395,0.62 0.037,0.059 -5.934,3.769 -0.028,-0.046 -7.492,-11.732 1.818,-1.16 3.293,5.158 2.29,-1.462 -3.295,-5.159 1.818,-1.16 6.335,9.92 z"
             style="fill:#ffffff;fill-opacity:1;fill-rule:nonzero;stroke:none"
             id="path42"
             inkscape:connector-curvature="0" />
        </g>
        <g
           id="g44"
           transform="translate(655.1156,103.8797)">
          <path
             d="M 0,0 C -1.01,0.463 -2.912,1.336 -4.806,2.206 -5.185,2.38 -5.621,2.144 -5.688,1.733 -5.823,0.914 -5.803,-0.369 -4.683,-1.234 -2.571,-2.865 -0.781,-1.956 0.18,-1.014 0.494,-0.708 0.399,-0.183 0,0"
             style="fill:#ffffff;fill-opacity:1;fill-rule:nonzero;stroke:none"
             id="path46"
             inkscape:connector-curvature="0" />
        </g>
        <g
           id="g48"
           transform="translate(629.0246,114.8538)">
          <path
             d="M 0,0 C 0,0 0.688,-5.775 3.11,-7.113 4.745,-8.016 8.741,-7.93 12.232,-8.197 8.367,-6.699 2.674,-2.608 0.001,0 Z"
             style="fill:#ffffff;fill-opacity:1;fill-rule:nonzero;stroke:none"
             id="path50"
             inkscape:connector-curvature="0" />
        </g>
        <g
           id="g52"
           transform="translate(657.5428,80.3208)">
          <path
             d="M 0,0 1.937,-2.629 H 6.13 L 8.067,0 Z"
             style="fill:#ffffff;fill-opacity:1;fill-rule:nonzero;stroke:none"
             id="path54"
             inkscape:connector-curvature="0" />
        </g>
        <g
           id="g56"
           transform="translate(694.1267,114.8538)">
          <path
             d="m 0,0 c -2.673,-2.608 -8.366,-6.698 -12.23,-8.198 3.49,0.269 7.486,0.182 9.122,1.084 C -0.686,-5.775 0.001,0 0.001,0 Z"
             style="fill:#ffffff;fill-opacity:1;fill-rule:nonzero;stroke:none"
             id="path58"
             inkscape:connector-curvature="0" />
        </g>
        <g
           id="g60"
           transform="translate(665.5923,95.5691)">
          <path
             d="M 0,0 -1.862,6.102 -4.016,5.056 -6.171,6.102 -8.032,0 c 0,0 -0.619,-2.423 -3.291,-4.13 l -1.138,-5.014 2.8,-3.777 h 2.97 l -2.751,4.045 0.433,2.5 c 1.25,-1.333 3.023,-2.169 4.993,-2.174 1.97,0.005 3.743,0.841 4.993,2.174 l 0.434,-2.5 -2.753,-4.045 H 1.63 L 4.428,-9.144 3.291,-4.13 C 0.619,-2.423 0,0 0,0"
             style="fill:#ffffff;fill-opacity:1;fill-rule:nonzero;stroke:none"
             id="path62"
             inkscape:connector-curvature="0" />
        </g>
        <g
           id="g64"
           transform="translate(672.8425,106.0856)">
          <path
             d="m 0,0 c -1.894,-0.87 -3.796,-1.743 -4.805,-2.206 -0.399,-0.183 -0.494,-0.708 -0.18,-1.014 0.96,-0.942 2.751,-1.851 4.862,-0.221 1.12,0.867 1.14,2.149 1.006,2.968 C 0.815,-0.062 0.38,0.174 0,0"
             style="fill:#ffffff;fill-opacity:1;fill-rule:nonzero;stroke:none"
             id="path66"
             inkscape:connector-curvature="0" />
        </g>
      </g>
    </g>
  </g>
</svg>
